<svg width="31" height="31" viewBox="0 0 31 31" fill="none" xmlns="http://www.w3.org/2000/svg">
<path fill-rule="evenodd" clip-rule="evenodd" d="M15.5 31C24.0604 31 31 24.0604 31 15.5C31 6.93959 24.0604 0 15.5 0C6.93959 0 0 6.93959 0 15.5C0 24.0604 6.93959 31 15.5 31ZM22.8481 14.3249C23.3209 14.5842 23.6121 15.0783 23.6051 15.6158C23.5981 16.1533 23.3039 16.6492 22.8295 16.9008L11.7732 22.8957C11.2508 23.174 10.6389 23.128 10.1717 22.7676C10.1239 22.7305 10.0761 22.6827 10.0337 22.6403C9.67292 22.2795 9.52549 21.7691 9.6548 21.2578L10.7198 16.9309C10.8282 16.4883 11.2256 16.1758 11.6807 16.1749L17.8185 16.1606C18.1325 16.1543 18.3834 15.9034 18.3844 15.5948C18.3907 15.2807 18.136 15.0261 17.822 15.0324L11.69 15.0514C11.235 15.0533 10.8395 14.7422 10.7339 14.3002L9.70519 9.99054C9.5728 9.43534 9.8152 8.66664 10.2888 8.34372C10.7538 8.02616 11.3356 7.99189 11.8292 8.27082L22.8481 14.3249Z" fill="white"/>
</svg>
