<svg width="31" height="31" viewBox="0 0 31 31" fill="none" xmlns="http://www.w3.org/2000/svg">
<path fill-rule="evenodd" clip-rule="evenodd" d="M15.5 31C24.0604 31 31 24.0604 31 15.5C31 6.93959 24.0604 0 15.5 0C6.93959 0 0 6.93959 0 15.5C0 24.0604 6.93959 31 15.5 31ZM19.1111 17.8667L16.8889 15.6444V12.4444C16.8895 12.1932 16.8044 11.9822 16.6338 11.8116C16.4631 11.6409 16.2519 11.5556 16 11.5556C15.7487 11.555 15.5378 11.64 15.3671 11.8107C15.1964 11.9813 15.1111 12.1926 15.1111 12.4444V15.9778C15.1111 16.0969 15.1333 16.2119 15.1778 16.3227C15.2222 16.4335 15.2889 16.5333 15.3778 16.6222L17.8667 19.1111C18.0296 19.2741 18.237 19.3556 18.4889 19.3556C18.7407 19.3556 18.9481 19.2741 19.1111 19.1111C19.2741 18.9481 19.3556 18.7407 19.3556 18.4889C19.3556 18.237 19.2741 18.0296 19.1111 17.8667ZM11.1778 22.4107C12.6 23.4702 14.2074 24 16 24C17.1117 24.0006 18.1526 23.7896 19.1227 23.3671C20.0927 22.9446 20.9372 22.3742 21.656 21.656C22.3736 20.9378 22.9437 20.0933 23.3662 19.1227C23.7887 18.152 24 17.1111 24 16C24.0006 14.8883 23.7896 13.8474 23.3671 12.8773C22.9446 11.9073 22.3742 11.0628 21.656 10.344C20.9378 9.62637 20.0933 9.0563 19.1227 8.63378C18.152 8.21126 17.1111 8 16 8C14.7858 8 13.6341 8.25926 12.5449 8.77778C11.4557 9.2963 10.5333 10.0296 9.77778 10.9778V9.77778C9.77837 9.52652 9.69334 9.31556 9.52267 9.14489C9.352 8.97422 9.14074 8.88889 8.88889 8.88889C8.63763 8.8883 8.42667 8.97333 8.256 9.144C8.08534 9.31467 8 9.52593 8 9.77778V13.3333C7.99941 13.5846 8.08445 13.7956 8.25511 13.9662C8.42578 14.1369 8.63704 14.2222 8.88889 14.2222H12.4444C12.6957 14.2228 12.9067 14.1378 13.0773 13.9671C13.248 13.7964 13.3333 13.5852 13.3333 13.3333C13.3339 13.0821 13.2489 12.8711 13.0782 12.7004C12.9076 12.5298 12.6963 12.4444 12.4444 12.4444H10.8889C11.4963 11.6148 12.2444 10.963 13.1333 10.4889C14.0222 10.0148 14.9778 9.77778 16 9.77778C17.7327 9.77719 19.203 10.3807 20.4107 11.5884C21.6184 12.7961 22.2222 14.2667 22.2222 16C22.2228 17.7327 21.6193 19.203 20.4116 20.4107C19.2039 21.6184 17.7333 22.2222 16 22.2222C14.6376 22.2222 13.4044 21.8222 12.3004 21.0222C11.1964 20.2222 10.4519 19.1704 10.0667 17.8667C9.99319 17.6154 9.8563 17.4044 9.656 17.2338C9.45571 17.0631 9.22963 17.0074 8.97778 17.0667C8.71171 17.1259 8.51556 17.2741 8.38934 17.5111C8.26311 17.7481 8.23704 18 8.31111 18.2667C8.8 19.9698 9.75556 21.3511 11.1778 22.4107Z" fill="white"/>
</svg>
