<svg width="31" height="31" viewBox="0 0 31 31" fill="none" xmlns="http://www.w3.org/2000/svg">
<path fill-rule="evenodd" clip-rule="evenodd" d="M15.5 31C24.0604 31 31 24.0604 31 15.5C31 6.93959 24.0604 0 15.5 0C6.93959 0 0 6.93959 0 15.5C0 24.0604 6.93959 31 15.5 31ZM18 21.3333H16.3333V17.1667H19.6667V15.5H21.3333V18.8333H18V20.5H19.6667V23H23V21.3333H21.3333V18.8333H23V15.5H21.3333V13.8333H19.6667V15.5H16.3333V13.8333H11.3333V15.5H9.66667V13.8333H8V15.5H9.66667V17.1667H11.3333V15.5H13V17.1667H14.6667V21.3333H16.3333V23H18V21.3333ZM14.6667 17.1667V15.5H16.3333V17.1667H14.6667ZM15.5 8V9.66667H13.8333V13H17.1667V11.3333H15.5V9.66667H17.1667V8H15.5ZM11.75 11.75H9.25V9.25H11.75V11.75ZM8.23917 12.76C8.39917 12.92 8.59723 13 8.83334 13H12.1667C12.4022 13.0006 12.6 12.9208 12.76 12.7608C12.92 12.6008 13 12.4028 13 12.1667V8.83334C13.0006 8.59778 12.9208 8.4 12.7608 8.24C12.6008 8.08 12.4028 8 12.1667 8H8.83334C8.59778 7.99945 8.4 8.07917 8.24 8.23917C8.08 8.39917 8 8.59723 8 8.83334V12.1667C7.99945 12.4022 8.07917 12.6 8.23917 12.76ZM11.75 21.75H9.25V19.25H11.75V21.75ZM8.23917 22.76C8.39917 22.92 8.59723 23 8.83334 23H12.1667C12.4022 23.0006 12.6 22.9208 12.76 22.7608C12.92 22.6008 13 22.4028 13 22.1667V18.8333C13.0006 18.5978 12.9208 18.4 12.7608 18.24C12.6008 18.08 12.4028 18 12.1667 18H8.83334C8.59778 17.9994 8.4 18.0792 8.24 18.2392C8.08 18.3992 8 18.5972 8 18.8333V22.1667C7.99945 22.4022 8.07917 22.6 8.23917 22.76ZM21.75 11.75H19.25V9.25H21.75V11.75ZM18.2392 12.76C18.3992 12.92 18.5972 13 18.8333 13H22.1667C22.4022 13.0006 22.6 12.9208 22.76 12.7608C22.92 12.6008 23 12.4028 23 12.1667V8.83334C23.0006 8.59778 22.9208 8.4 22.7608 8.24C22.6008 8.08 22.4028 8 22.1667 8H18.8333C18.5978 7.99945 18.4 8.07917 18.24 8.23917C18.08 8.39917 18 8.59723 18 8.83334V12.1667C17.9994 12.4022 18.0792 12.6 18.2392 12.76ZM9.875 9.875V11.125H11.125V9.875H9.875ZM9.875 19.875V21.125H11.125V19.875H9.875ZM19.875 9.875V11.125H21.125V9.875H19.875Z" fill="white"/>
</svg>
